<svg width="131" height="128" viewBox="0 0 131 128" fill="none" xmlns="http://www.w3.org/2000/svg">
<g filter="url(#filter0_d_0_185)">
<rect x="25" width="81" height="53" rx="4" fill="#333950"/>
</g>
<mask id="mask0_0_185" style="mask-type:alpha" maskUnits="userSpaceOnUse" x="25" y="0" width="81" height="53">
<rect x="25" width="81" height="53" rx="4" fill="white"/>
</mask>
<g mask="url(#mask0_0_185)">
<path fill-rule="evenodd" clip-rule="evenodd" d="M54.1601 33.5976V34.4863H48.1979V33.5976L50.3588 33.284L56.2429 14.8835H58.9506L65.1992 33.3624L67.2821 33.5976V34.4863H58.4039V33.5976L60.7211 33.3363L59.1329 28.2918H53.1447L51.7127 33.2578L54.1601 33.5976ZM53.405 27.377H58.8465L56.0086 18.4382L53.405 27.377ZM79.8833 34.9306C81.5496 34.9306 82.539 34.3295 83.1899 32.8919L82.7473 32.526C82.2526 33.3101 81.9662 33.5192 81.5757 33.5192C81.081 33.5192 80.7686 33.1794 80.7686 32.1862V25.1554C80.7686 21.3655 79.2845 19.7712 75.5874 19.7712C71.5519 19.7712 69.2868 21.3394 69.0785 23.7963C69.2868 24.6588 69.9377 25.1292 70.875 25.1292C71.8643 25.1292 72.7496 24.4235 72.8277 22.6462L73.0099 20.7905C73.4004 20.7121 73.7389 20.686 74.1034 20.686C76.0821 20.686 76.707 21.4962 76.707 24.2144V25.8088L76.7068 25.8089C75.7956 26.0441 74.8844 26.2793 74.1555 26.4884C69.9637 27.7168 68.6099 28.9975 68.6099 31.376C68.6099 33.5715 70.172 34.9306 72.4111 34.9306C74.4939 34.9306 75.4833 34.1204 76.8111 32.6567C77.2017 34.0681 78.165 34.9306 79.8833 34.9306ZM72.4892 30.8532C72.4892 32.4215 73.2182 33.1533 74.4419 33.1533C75.1448 33.1533 75.7437 32.8135 76.707 31.951V26.5145C76.1082 26.6713 75.5874 26.8281 75.275 26.9588C73.4525 27.7168 72.4892 28.9452 72.4892 30.8532Z" fill="#FEFEFE"/>
<path d="M47.7812 36.3013V37.7533H82.1817V36.3013H47.7812Z" fill="#FEFEFE"/>
<g opacity="0.15">
<path d="M0.772339 25.7739V27.226H35.1727V25.7739H0.772339Z" fill="#FEFEFE"/>
</g>
<g opacity="0.15">
<path d="M94.7902 25.7739V27.226H129.191V25.7739H94.7902Z" fill="#FEFEFE"/>
</g>
</g>
<defs>
<filter id="filter0_d_0_185" x="0" y="0" width="131" height="128" filterUnits="userSpaceOnUse" color-interpolation-filters="sRGB">
<feFlood flood-opacity="0" result="BackgroundImageFix"/>
<feColorMatrix in="SourceAlpha" type="matrix" values="0 0 0 0 0 0 0 0 0 0 0 0 0 0 0 0 0 0 127 0" result="hardAlpha"/>
<feMorphology radius="25" operator="erode" in="SourceAlpha" result="effect1_dropShadow_0_185"/>
<feOffset dy="50"/>
<feGaussianBlur stdDeviation="25"/>
<feColorMatrix type="matrix" values="0 0 0 0 0.293478 0 0 0 0 0.35972 0 0 0 0 0.604535 0 0 0 0.247159 0"/>
<feBlend mode="normal" in2="BackgroundImageFix" result="effect1_dropShadow_0_185"/>
<feBlend mode="normal" in="SourceGraphic" in2="effect1_dropShadow_0_185" result="shape"/>
</filter>
</defs>
</svg>
