<svg width="81" height="175" viewBox="0 0 81 175" fill="none" xmlns="http://www.w3.org/2000/svg">
<rect width="81" height="175" rx="4" fill="#5175FF"/>
<rect opacity="0.15" y="65.942" width="81" height="0.362319" fill="white"/>
<path opacity="0.145996" d="M60.25 32.971C60.25 43.9016 51.4067 52.7609 40.5 52.7609C29.5933 52.7609 20.75 43.9016 20.75 32.971C20.75 22.0404 29.5933 13.1812 40.5 13.1812C51.4067 13.1812 60.25 22.0404 60.25 32.971Z" stroke="white" stroke-linejoin="round"/>
<path d="M32.2541 51.2736L33.5436 48.3416C35.7161 49.297 38.0715 49.7969 40.5 49.7969C50.0528 49.7969 57.7969 42.0528 57.7969 32.5C57.7969 22.9472 50.0528 15.2031 40.5 15.2031C30.9472 15.2031 23.2031 22.9472 23.2031 32.5H20C20 21.1782 29.1782 12 40.5 12C51.8218 12 61 21.1782 61 32.5C61 43.8218 51.8218 53 40.5 53C37.6253 53 34.831 52.407 32.2541 51.2736Z" fill="#5CFCD3"/>
<path fill-rule="evenodd" clip-rule="evenodd" d="M32.1265 37.1263C32.7254 37.1263 33.249 37.0225 33.6972 36.815C34.1455 36.6074 34.4949 36.3168 34.7453 35.9431C34.9958 35.5695 35.1211 35.1355 35.1211 34.641C35.1211 34.1278 34.9883 33.6796 34.7227 33.2965C34.4572 32.9134 34.089 32.6238 33.6181 32.4275C33.9986 32.2426 34.2971 31.9859 34.5137 31.6576C34.7303 31.3292 34.8386 30.9499 34.8386 30.5197C34.8386 30.0743 34.7256 29.6846 34.4996 29.3506C34.2736 29.0166 33.9572 28.7571 33.5503 28.5722C33.1435 28.3873 32.6689 28.2948 32.1265 28.2948C31.5803 28.2948 31.1029 28.3873 30.6942 28.5722C30.2855 28.7571 29.9682 29.0166 29.7422 29.3506C29.5162 29.6846 29.4032 30.0743 29.4032 30.5197C29.4032 30.9537 29.5115 31.3339 29.728 31.6604C29.9446 31.9869 30.245 32.2426 30.6292 32.4275C30.1622 32.6238 29.7958 32.9134 29.5303 33.2965C29.2647 33.6796 29.132 34.1278 29.132 34.641C29.132 35.1355 29.2572 35.5695 29.5077 35.9431C29.7582 36.3168 30.1075 36.6074 30.5558 36.815C31.004 37.0225 31.5276 37.1263 32.1265 37.1263ZM32.1265 31.6915C31.8063 31.6915 31.5474 31.5981 31.3496 31.4113C31.1519 31.2245 31.053 30.9782 31.053 30.6725C31.053 30.363 31.1519 30.1158 31.3496 29.9309C31.5474 29.746 31.8063 29.6535 32.1265 29.6535C32.4429 29.6535 32.7 29.746 32.8978 29.9309C33.0955 30.1158 33.1944 30.363 33.1944 30.6725C33.1944 30.9782 33.0955 31.2245 32.8978 31.4113C32.7 31.5981 32.4429 31.6915 32.1265 31.6915ZM31.1462 35.2694C31.3929 35.4883 31.7197 35.5978 32.1265 35.5978C32.5333 35.5978 32.8601 35.4883 33.1068 35.2694C33.3535 35.0505 33.4769 34.7637 33.4769 34.4089C33.4769 34.0504 33.3535 33.7626 33.1068 33.5456C32.8601 33.3286 32.5333 33.2201 32.1265 33.2201C31.7197 33.2201 31.3929 33.3286 31.1462 33.5456C30.8995 33.7626 30.7761 34.0504 30.7761 34.4089C30.7761 34.7637 30.8995 35.0505 31.1462 35.2694ZM39.0253 36.9565L41.9125 29.6648V28.4646H36.4206V29.9932H39.9067L37.1608 36.9565H39.0253ZM46.3196 32.2718C46.0446 32.3982 45.7075 32.4615 45.3082 32.4615C44.7771 32.4615 44.3543 32.3539 44.0398 32.1388C43.7253 31.9236 43.4992 31.6595 43.3618 31.3462C43.2243 31.0329 43.1555 30.7291 43.1555 30.4347C43.1555 30.1404 43.2243 29.8365 43.3618 29.5233C43.4992 29.21 43.7253 28.9458 44.0398 28.7307C44.3543 28.5156 44.7771 28.408 45.3082 28.408C45.7075 28.408 46.0446 28.4712 46.3196 28.5977C46.5946 28.7241 46.8168 28.8883 46.9863 29.0902C47.1558 29.2921 47.2782 29.511 47.3536 29.7469C47.4289 29.9828 47.4666 30.2121 47.4666 30.4347C47.4666 30.6536 47.4289 30.882 47.3536 31.1198C47.2782 31.3575 47.1558 31.5774 46.9863 31.7793C46.8168 31.9812 46.5946 32.1454 46.3196 32.2718ZM46.0258 36.9621L51.4329 28.4533H49.8905L44.489 36.9621H46.0258ZM44.7941 31.0292C44.9184 31.1915 45.0898 31.2726 45.3082 31.2726C45.5305 31.2726 45.7037 31.1915 45.828 31.0292C45.9523 30.8669 46.0145 30.6687 46.0145 30.4347C46.0145 30.2007 45.9523 30.0026 45.828 29.8403C45.7037 29.678 45.5305 29.5969 45.3082 29.5969C45.0898 29.5969 44.9184 29.678 44.7941 29.8403C44.6698 30.0026 44.6076 30.2007 44.6076 30.4347C44.6076 30.6687 44.6698 30.8669 44.7941 31.0292ZM50.6024 37.0131C51.1335 37.0131 51.5563 36.9055 51.8708 36.6904C52.1854 36.4753 52.4123 36.2111 52.5517 35.8978C52.691 35.5846 52.7607 35.2808 52.7607 34.9864C52.7607 34.7675 52.7231 34.5401 52.6477 34.3042C52.5724 34.0683 52.45 33.8485 52.2805 33.6447C52.111 33.4409 51.8887 33.2757 51.6138 33.1493C51.3388 33.0229 51.0017 32.9597 50.6024 32.9597C50.2031 32.9597 49.866 33.0229 49.591 33.1493C49.316 33.2757 49.0947 33.4409 48.9271 33.6447C48.7595 33.8485 48.638 34.0683 48.5627 34.3042C48.4874 34.5401 48.4497 34.7675 48.4497 34.9864C48.4497 35.2808 48.5184 35.5846 48.6559 35.8978C48.7934 36.2111 49.0194 36.4753 49.3339 36.6904C49.6485 36.9055 50.0713 37.0131 50.6024 37.0131ZM50.0854 35.5836C50.2078 35.744 50.3801 35.8242 50.6024 35.8242C50.8246 35.8242 50.9979 35.744 51.1222 35.5836C51.2465 35.4232 51.3086 35.226 51.3086 34.992C51.3086 34.7543 51.2465 34.5542 51.1222 34.3919C50.9979 34.2297 50.8246 34.1485 50.6024 34.1485C50.3801 34.1485 50.2078 34.2297 50.0854 34.3919C49.963 34.5542 49.9018 34.7543 49.9018 34.992C49.9018 35.226 49.963 35.4232 50.0854 35.5836Z" fill="#5CFCD3"/>
<path fill-rule="evenodd" clip-rule="evenodd" d="M33.4254 85.336C32.7073 86.1238 31.8657 86.7961 30.9005 87.3528L29.601 85.8738C30.2743 85.4822 30.8769 85.0411 31.409 84.5505C31.941 84.0598 32.3719 83.5432 32.7015 83.0007C32.5696 83.0337 32.4272 83.0597 32.2742 83.0786C32.1211 83.0974 31.9528 83.1069 31.7692 83.1069C31.0629 83.1069 30.4343 82.9583 29.8835 82.661C29.3326 82.3638 28.9006 81.9557 28.5875 81.4368C28.2744 80.9179 28.1178 80.3234 28.1178 79.6535C28.1178 78.9647 28.2814 78.3561 28.6087 77.8278C28.9359 77.2994 29.3855 76.8842 29.9576 76.5823C30.5297 76.2804 31.183 76.1294 31.9175 76.1294C32.6803 76.1294 33.3453 76.2933 33.9127 76.6212C34.4801 76.9491 34.9191 77.4102 35.2299 78.0047C35.5406 78.5991 35.696 79.295 35.696 80.0923C35.696 80.9933 35.4971 81.8956 35.0992 82.799C34.7014 83.7025 34.1434 84.5481 33.4254 85.336ZM30.7522 80.9627C31.0488 81.2788 31.4255 81.4368 31.8822 81.4368C32.3436 81.4368 32.7262 81.2764 33.0299 80.9556C33.3336 80.6348 33.4854 80.2291 33.4854 79.7384C33.4854 79.2478 33.3359 78.8421 33.0369 78.5213C32.7379 78.2005 32.3577 78.0401 31.8963 78.0401C31.4396 78.0401 31.0606 78.2016 30.7592 78.5248C30.4579 78.848 30.3072 79.2572 30.3072 79.7526C30.3072 80.2432 30.4555 80.6466 30.7522 80.9627ZM40.8517 87.1688C41.6004 87.1688 42.2548 87.0391 42.8152 86.7796C43.3755 86.5201 43.8122 86.1569 44.1253 85.6898C44.4384 85.2227 44.5949 84.6802 44.5949 84.0622C44.5949 83.4206 44.429 82.8604 44.097 82.3815C43.7651 81.9027 43.3048 81.5406 42.7163 81.2953C43.1918 81.0641 43.565 80.7433 43.8357 80.3329C44.1064 79.9224 44.2418 79.4483 44.2418 78.9105C44.2418 78.3538 44.1006 77.8667 43.818 77.4492C43.5355 77.0317 43.14 76.7073 42.6315 76.4761C42.123 76.245 41.5297 76.1294 40.8517 76.1294C40.169 76.1294 39.5722 76.245 39.0614 76.4761C38.5505 76.7073 38.1538 77.0317 37.8713 77.4492C37.5888 77.8667 37.4475 78.3538 37.4475 78.9105C37.4475 79.453 37.5829 79.9283 37.8536 80.3364C38.1244 80.7445 38.4999 81.0641 38.9801 81.2953C38.3963 81.5406 37.9384 81.9027 37.6065 82.3815C37.2745 82.8604 37.1085 83.4206 37.1085 84.0622C37.1085 84.6802 37.2651 85.2227 37.5782 85.6898C37.8913 86.1569 38.328 86.5201 38.8883 86.7796C39.4486 87.0391 40.1031 87.1688 40.8517 87.1688ZM39.8806 80.025C40.1278 80.2586 40.4515 80.3753 40.8517 80.3753C41.2472 80.3753 41.5686 80.2586 41.8158 80.025C42.063 79.7915 42.1866 79.4837 42.1866 79.1015C42.1866 78.7147 42.063 78.4057 41.8158 78.1745C41.5686 77.9433 41.2472 77.8278 40.8517 77.8278C40.4515 77.8278 40.1278 77.9433 39.8806 78.1745C39.6334 78.4057 39.5098 78.7147 39.5098 79.1015C39.5098 79.4837 39.6334 79.7915 39.8806 80.025ZM40.8517 85.2581C40.3432 85.2581 39.9348 85.1213 39.6264 84.8477C39.318 84.5741 39.1638 84.2155 39.1638 83.7721C39.1638 83.3239 39.318 82.9642 39.6264 82.6929C39.9348 82.4216 40.3432 82.286 40.8517 82.286C41.3602 82.286 41.7687 82.4216 42.0771 82.6929C42.3855 82.9642 42.5397 83.3239 42.5397 83.7721C42.5397 84.2155 42.3855 84.5741 42.0771 84.8477C41.7687 85.1213 41.3602 85.2581 40.8517 85.2581ZM48.2534 85.2864V86.9565H46.2193V76.3417H48.2534V82.7813C48.3946 82.5596 48.55 82.3438 48.7195 82.1338C48.889 81.9239 49.075 81.701 49.2775 81.4651L50.6476 79.88H52.8723L50.1603 83.0573L53.3809 86.9565H50.8877L48.8678 84.5646L48.2534 85.2864Z" fill="white"/>
<rect x="11.5714" y="102.174" width="5.0625" height="5.07246" rx="2.53125" fill="white"/>
<rect x="22.058" y="102.174" width="47.3705" height="5.07246" rx="2.53623" fill="#7DA7FF"/>
<rect x="11.5714" y="114.493" width="5.0625" height="5.07246" rx="2.53125" fill="white"/>
<rect x="22.058" y="114.493" width="30.0134" height="5.07246" rx="2.53623" fill="#7DA7FF"/>
<rect x="11.5714" y="126.812" width="5.0625" height="5.07246" rx="2.53125" fill="white"/>
<rect x="22.058" y="126.812" width="47.3705" height="5.07246" rx="2.53623" fill="#7DA7FF"/>
<rect x="11.5714" y="139.13" width="5.0625" height="5.07246" rx="2.53125" fill="white"/>
<rect x="22.058" y="139.13" width="28.567" height="5.07246" rx="2.53623" fill="#7DA7FF"/>
<rect x="11.5714" y="151.449" width="5.0625" height="5.07246" rx="2.53125" fill="white"/>
<rect x="22.058" y="151.449" width="47.3705" height="5.07246" rx="2.53623" fill="#7DA7FF"/>
</svg>
