<svg width="81" height="111" viewBox="0 0 81 111" fill="none" xmlns="http://www.w3.org/2000/svg">
<rect width="81" height="111" rx="4" fill="white"/>
<mask id="mask0_0_137" style="mask-type:alpha" maskUnits="userSpaceOnUse" x="0" y="0" width="81" height="111">
<rect width="81" height="111" rx="4" fill="white"/>
</mask>
<g mask="url(#mask0_0_137)">
<path fill-rule="evenodd" clip-rule="evenodd" d="M-13.3167 86.4607L20.4308 75.087L40.5 45.683L60.9308 52.1522L88.1126 10.2412V96.6312L-13.3167 96.2719V86.4607Z" fill="url(#paint0_linear_0_137)"/>
<path d="M88.4742 9.02026V96.631H87.751L87.7508 11.4613L61.0848 52.5779L40.6472 46.1066L20.662 75.3883L-13.2005 86.8007L-13.4328 86.1204L20.1997 74.7852L40.3524 45.2591L60.7768 51.7263L88.4742 9.02026Z" fill="#5175FF"/>
<rect opacity="0.152227" x="40.5" width="0.361607" height="89.8058" fill="#5175FF"/>
<rect opacity="0.152227" x="20.25" width="0.361607" height="89.8058" fill="#5175FF"/>
<rect opacity="0.152227" x="61.1116" width="0.361607" height="89.8058" fill="#5175FF"/>
<ellipse cx="40.5" cy="45.6214" rx="2.16964" ry="2.15534" fill="#5175FF"/>
<path fill-rule="evenodd" clip-rule="evenodd" d="M47.0089 45.6213C47.0089 42.0502 44.0948 39.1553 40.5 39.1553C36.9052 39.1553 33.9911 42.0502 33.9911 45.6213C33.9911 49.1924 36.9052 52.0873 40.5 52.0873C44.0948 52.0873 47.0089 49.1924 47.0089 45.6213ZM34.3527 45.6213C34.3527 42.2486 37.1049 39.5145 40.5 39.5145C43.8951 39.5145 46.6473 42.2486 46.6473 45.6213C46.6473 48.994 43.8951 51.7281 40.5 51.7281C37.1049 51.7281 34.3527 48.994 34.3527 45.6213Z" fill="#5175FF"/>
<ellipse cx="20.25" cy="75.0777" rx="2.16964" ry="2.15534" fill="#5175FF"/>
<ellipse cx="61.1116" cy="52.0875" rx="2.16964" ry="2.15534" fill="#5175FF"/>
<ellipse cx="81" cy="21.5533" rx="2.16964" ry="2.15534" fill="#5175FF"/>
<ellipse cx="2.6226e-05" cy="81.9029" rx="2.16964" ry="2.15534" fill="#5175FF"/>
<path opacity="0.5" fill-rule="evenodd" clip-rule="evenodd" d="M38.2742 104.981C38.0923 105.146 37.8071 105.228 37.4187 105.228L37.3798 104.727C37.7618 104.727 37.9528 104.565 37.9528 104.242V101.64H38.5471V104.206C38.5471 104.558 38.4561 104.817 38.2742 104.981ZM40.0028 104.507C39.8986 104.551 39.7843 104.572 39.66 104.572C39.4632 104.572 39.3023 104.52 39.1774 104.414C39.0524 104.309 38.9899 104.172 38.9899 104.003C38.9899 103.875 39.0272 103.759 39.1016 103.658C39.1761 103.556 39.2787 103.476 39.4094 103.417C39.5402 103.357 39.6898 103.328 39.8581 103.328C39.9112 103.328 39.9672 103.331 40.0261 103.338C40.085 103.344 40.1443 103.352 40.2038 103.363C40.1611 103.153 40.0077 103.048 39.7435 103.048C39.5868 103.048 39.4295 103.107 39.2715 103.224L39.0793 102.755C39.2139 102.691 39.3466 102.643 39.4774 102.612C39.6082 102.581 39.7325 102.566 39.8503 102.566C40.0381 102.566 40.2009 102.601 40.3388 102.671C40.4767 102.741 40.5838 102.84 40.6602 102.968C40.7366 103.096 40.7748 103.246 40.7748 103.419V104.534H40.3048L40.2679 104.327C40.1954 104.403 40.107 104.463 40.0028 104.507ZM39.8212 104.09C39.7396 104.09 39.6739 104.07 39.6241 104.031C39.5742 103.992 39.5493 103.94 39.5493 103.876C39.5493 103.805 39.58 103.75 39.6415 103.712C39.703 103.673 39.7888 103.654 39.8989 103.654C39.952 103.654 40.006 103.658 40.0611 103.667C40.1161 103.676 40.1676 103.689 40.2155 103.704V103.743C40.2155 103.84 40.1776 103.923 40.1019 103.99C40.0261 104.057 39.9326 104.09 39.8212 104.09ZM41.8003 103.556V104.534H41.241V102.604H41.7304L41.7537 102.84C41.8301 102.752 41.9217 102.685 42.0285 102.637C42.1354 102.59 42.2529 102.566 42.3811 102.566C42.6076 102.566 42.7883 102.64 42.9229 102.789C43.0576 102.937 43.1249 103.144 43.1249 103.409V104.534H42.5636V103.517C42.5636 103.204 42.4458 103.048 42.2101 103.048C42.0884 103.048 41.9897 103.093 41.9139 103.181C41.8382 103.27 41.8003 103.395 41.8003 103.556Z" fill="#747B95"/>
<path opacity="0.5" fill-rule="evenodd" clip-rule="evenodd" d="M17.7232 104.538C18.2955 104.538 18.7351 104.411 19.042 104.158C19.3488 103.904 19.5023 103.547 19.5023 103.087C19.5023 102.628 19.3488 102.272 19.042 102.021C18.7351 101.769 18.2955 101.644 17.7232 101.644H16.8065V104.538H17.7232ZM17.7368 104.017H17.4008V102.164H17.7368C18.1123 102.164 18.4001 102.245 18.6001 102.406C18.8002 102.566 18.9002 102.793 18.9002 103.087C18.9002 103.381 18.8002 103.61 18.6001 103.773C18.4001 103.935 18.1123 104.017 17.7368 104.017ZM21.2338 104.507C21.0868 104.551 20.946 104.572 20.8113 104.572C20.5964 104.572 20.4067 104.529 20.2423 104.442C20.0778 104.355 19.949 104.236 19.8558 104.083C19.7625 103.931 19.7159 103.758 19.7159 103.563C19.7159 103.372 19.7606 103.201 19.8499 103.051C19.9393 102.901 20.0613 102.783 20.216 102.696C20.3708 102.609 20.5465 102.566 20.7433 102.566C20.9389 102.566 21.1127 102.609 21.2648 102.695C21.417 102.781 21.5371 102.9 21.6251 103.05C21.7132 103.201 21.7572 103.373 21.7572 103.567V103.735H20.2423C20.2772 103.842 20.3416 103.929 20.4355 103.996C20.5294 104.062 20.6391 104.096 20.7647 104.096C20.8994 104.096 21.0111 104.074 21.0997 104.031C21.1884 103.988 21.269 103.932 21.3416 103.864L21.6795 104.266C21.5293 104.383 21.3807 104.463 21.2338 104.507ZM21.1823 103.426H20.2306C20.2578 103.316 20.3151 103.225 20.4025 103.154C20.4899 103.084 20.5932 103.048 20.7123 103.048C20.8301 103.048 20.9311 103.083 21.0153 103.152C21.0994 103.222 21.1551 103.313 21.1823 103.426ZM23.4906 104.497C23.3592 104.547 23.2165 104.572 23.0624 104.572C22.8565 104.572 22.673 104.529 22.5117 104.442C22.3505 104.355 22.2233 104.236 22.1301 104.085C22.0369 103.934 21.9903 103.762 21.9903 103.569C21.9903 103.376 22.0369 103.204 22.1301 103.053C22.2233 102.902 22.3505 102.783 22.5117 102.696C22.673 102.609 22.8565 102.566 23.0624 102.566C23.2165 102.566 23.3592 102.591 23.4906 102.641C23.6221 102.691 23.735 102.761 23.8295 102.851L23.4353 103.22C23.342 103.105 23.2177 103.048 23.0624 103.048C22.9199 103.048 22.8021 103.098 22.7089 103.197C22.6157 103.296 22.569 103.42 22.569 103.569C22.569 103.718 22.6157 103.842 22.7089 103.941C22.8021 104.041 22.9199 104.09 23.0624 104.09C23.2177 104.09 23.342 104.033 23.4353 103.918L23.8295 104.287C23.735 104.377 23.6221 104.447 23.4906 104.497Z" fill="#747B95"/>
<path opacity="0.5" fill-rule="evenodd" clip-rule="evenodd" d="M-2.94925 102.585V104.534H-3.53192V101.64H-2.94148L-1.44597 103.585V101.64H-0.85165V104.534H-1.4518L-2.94925 102.585ZM1.08669 104.442C0.931314 104.529 0.753924 104.572 0.554522 104.572C0.35512 104.572 0.177407 104.529 0.0213809 104.442C-0.134645 104.355 -0.257652 104.236 -0.347642 104.085C-0.437632 103.934 -0.482627 103.762 -0.482627 103.569C-0.482627 103.376 -0.437632 103.204 -0.347642 103.053C-0.257652 102.902 -0.134645 102.783 0.0213809 102.696C0.177407 102.609 0.35512 102.566 0.554522 102.566C0.753924 102.566 0.931314 102.609 1.08669 102.696C1.24207 102.783 1.36475 102.902 1.45474 103.053C1.54473 103.204 1.58973 103.376 1.58973 103.569C1.58973 103.762 1.54473 103.934 1.45474 104.085C1.36475 104.236 1.24207 104.355 1.08669 104.442ZM0.554522 104.09C0.412092 104.09 0.294264 104.04 0.201037 103.941C0.10781 103.842 0.0611966 103.718 0.0611966 103.569C0.0611966 103.42 0.10781 103.296 0.201037 103.197C0.294264 103.098 0.412092 103.048 0.554522 103.048C0.696952 103.048 0.81478 103.098 0.908007 103.197C1.00123 103.296 1.04785 103.42 1.04785 103.569C1.04785 103.718 1.00123 103.842 0.908007 103.941C0.81478 104.04 0.696952 104.09 0.554522 104.09ZM3.21537 102.604H3.80387L3.03669 104.534H2.49286L1.68684 102.604H2.29476L2.6463 103.544C2.66443 103.593 2.68482 103.664 2.70748 103.758C2.73014 103.852 2.74794 103.937 2.76089 104.013H2.76866C2.7842 103.937 2.80394 103.853 2.8279 103.76C2.85185 103.667 2.87289 103.595 2.89102 103.544L3.21537 102.604Z" fill="#747B95"/>
<path opacity="0.5" fill-rule="evenodd" clip-rule="evenodd" d="M58.0921 104.534V103.307H59.2147V102.786H58.0921V102.161H59.2924V101.64H57.4977V104.534H58.0921ZM60.6985 104.572C60.8332 104.572 60.974 104.551 61.121 104.507C61.2679 104.463 61.4165 104.383 61.5667 104.266L61.2288 103.864C61.1562 103.932 61.0756 103.988 60.987 104.031C60.8983 104.074 60.7866 104.096 60.6519 104.096C60.5263 104.096 60.4166 104.062 60.3227 103.995C60.2288 103.929 60.1644 103.842 60.1295 103.735H61.6444V103.567C61.6444 103.373 61.6004 103.201 61.5123 103.05C61.4243 102.9 61.3042 102.781 61.152 102.695C60.9999 102.609 60.8261 102.566 60.6306 102.566C60.4337 102.566 60.258 102.609 60.1032 102.696C59.9485 102.783 59.8265 102.901 59.7371 103.051C59.6478 103.201 59.6031 103.372 59.6031 103.563C59.6031 103.758 59.6497 103.931 59.743 104.083C59.8362 104.236 59.965 104.355 60.1295 104.442C60.2939 104.529 60.4836 104.572 60.6985 104.572ZM60.1178 103.426H61.0695C61.0423 103.313 60.9866 103.222 60.9025 103.152C60.8183 103.083 60.7173 103.048 60.5995 103.048C60.4804 103.048 60.3771 103.083 60.2897 103.154C60.2023 103.225 60.145 103.316 60.1178 103.426ZM63.1923 104.572C63.3749 104.572 63.5374 104.529 63.6798 104.442C63.8223 104.355 63.9343 104.236 64.0159 104.085C64.0974 103.934 64.1382 103.762 64.1382 103.569C64.1382 103.376 64.0974 103.204 64.0159 103.053C63.9343 102.902 63.8223 102.783 63.6798 102.696C63.5374 102.609 63.3749 102.566 63.1923 102.566C63.0706 102.566 62.9573 102.586 62.8525 102.627C62.7476 102.667 62.6544 102.723 62.5728 102.795V101.64H62.0134V104.534H62.5417L62.5553 104.325C62.6369 104.404 62.732 104.465 62.8408 104.508C62.9496 104.551 63.0668 104.572 63.1923 104.572ZM62.7126 103.941C62.8058 104.04 62.9237 104.09 63.0661 104.09C63.2085 104.09 63.3264 104.04 63.4196 103.941C63.5128 103.842 63.5594 103.718 63.5594 103.569C63.5594 103.42 63.5128 103.296 63.4196 103.197C63.3264 103.098 63.2085 103.048 63.0661 103.048C62.9237 103.048 62.8058 103.098 62.7126 103.197C62.6194 103.296 62.5728 103.42 62.5728 103.569C62.5728 103.718 62.6194 103.842 62.7126 103.941Z" fill="#747B95"/>
<path opacity="0.5" fill-rule="evenodd" clip-rule="evenodd" d="M78.1265 103.754C78.1298 103.985 78.1314 104.244 78.1314 104.534H77.537V101.64H78.3101L78.951 103.004C78.9808 103.078 79.0102 103.153 79.0394 103.229C79.0685 103.304 79.0967 103.379 79.1238 103.455C79.151 103.377 79.1798 103.299 79.2103 103.222C79.2407 103.145 79.2721 103.072 79.3045 103.004L79.9435 101.64H80.7009V104.534H80.1066C80.1066 104.181 80.1099 103.837 80.1163 103.502C80.1228 103.166 80.1364 102.829 80.1571 102.492C80.1234 102.581 80.0882 102.669 80.0513 102.757C80.0144 102.844 79.9758 102.93 79.9357 103.015L79.4443 104.061H78.7917L78.3023 103.019C78.2621 102.921 78.2233 102.825 78.1858 102.731C78.1482 102.636 78.1113 102.541 78.075 102.446C78.0893 102.67 78.1006 102.886 78.109 103.095C78.1175 103.304 78.1233 103.524 78.1265 103.754ZM82.1566 104.507C82.0524 104.551 81.9381 104.572 81.8138 104.572C81.617 104.572 81.4561 104.52 81.3312 104.414C81.2062 104.309 81.1438 104.172 81.1438 104.003C81.1438 103.875 81.181 103.759 81.2554 103.658C81.3299 103.556 81.4325 103.476 81.5633 103.417C81.6941 103.357 81.8436 103.328 82.0119 103.328C82.065 103.328 82.121 103.331 82.1799 103.338C82.2389 103.344 82.2981 103.352 82.3577 103.363C82.3149 103.153 82.1615 103.048 81.8973 103.048C81.7407 103.048 81.5834 103.107 81.4254 103.224L81.2331 102.755C81.3678 102.691 81.5005 102.643 81.6313 102.612C81.762 102.581 81.8863 102.566 82.0042 102.566C82.1919 102.566 82.3547 102.601 82.4926 102.671C82.6305 102.741 82.7377 102.84 82.8141 102.968C82.8905 103.096 82.9287 103.246 82.9287 103.419V104.534H82.4586L82.4217 104.327C82.3492 104.403 82.2609 104.463 82.1566 104.507ZM81.975 104.09C81.8935 104.09 81.8277 104.07 81.7779 104.031C81.728 103.992 81.7031 103.94 81.7031 103.876C81.7031 103.805 81.7339 103.75 81.7954 103.712C81.8569 103.673 81.9427 103.654 82.0527 103.654C82.1058 103.654 82.1599 103.658 82.2149 103.667C82.2699 103.676 82.3214 103.689 82.3693 103.704V103.743C82.3693 103.84 82.3314 103.923 82.2557 103.99C82.1799 104.057 82.0864 104.09 81.975 104.09ZM83.9542 103.683V104.534H83.3948V102.604H83.8842L83.9114 102.88C84.0526 102.671 84.2468 102.566 84.4941 102.566C84.5783 102.566 84.665 102.579 84.7544 102.604L84.6767 103.085C84.6016 103.06 84.5278 103.048 84.4553 103.048C84.3051 103.048 84.184 103.103 84.0921 103.213C84.0001 103.323 83.9542 103.48 83.9542 103.683Z" fill="#747B95"/>
<rect opacity="0.25" y="96.2717" width="81" height="0.359223" fill="#747B95"/>
<rect opacity="0.25" x="40.5" y="93.3979" width="0.361607" height="2.87379" fill="#747B95"/>
<rect opacity="0.25" x="20.25" y="93.3979" width="0.361607" height="2.87379" fill="#747B95"/>
<rect opacity="0.25" x="60.75" y="93.3979" width="0.361607" height="2.87379" fill="#747B95"/>
</g>
<defs>
<linearGradient id="paint0_linear_0_137" x1="-13.3167" y1="10.2412" x2="-13.3167" y2="96.6312" gradientUnits="userSpaceOnUse">
<stop stop-color="#024AFF" stop-opacity="0.148028"/>
<stop offset="1" stop-color="#3B77CF" stop-opacity="0.01"/>
</linearGradient>
</defs>
</svg>
