<svg width="81" height="53" viewBox="0 0 81 53" fill="none" xmlns="http://www.w3.org/2000/svg">
<rect width="81" height="53" rx="4" fill="#333950"/>
<mask id="mask0_0_136" style="mask-type:alpha" maskUnits="userSpaceOnUse" x="0" y="0" width="81" height="53">
<rect width="81" height="53" rx="4" fill="white"/>
</mask>
<g mask="url(#mask0_0_136)">
<path fill-rule="evenodd" clip-rule="evenodd" d="M29.1601 33.5976V34.4863H23.1979V33.5976L25.3588 33.284L31.2429 14.8835H33.9506L40.1992 33.3624L42.2821 33.5976V34.4863H33.4039V33.5976L35.7211 33.3363L34.1329 28.2918H28.1447L26.7127 33.2578L29.1601 33.5976ZM28.405 27.377H33.8465L31.0086 18.4382L28.405 27.377ZM54.8833 34.9306C56.5496 34.9306 57.539 34.3295 58.1899 32.8919L57.7473 32.526C57.2526 33.3101 56.9662 33.5192 56.5757 33.5192C56.081 33.5192 55.7686 33.1794 55.7686 32.1862V25.1554C55.7686 21.3655 54.2845 19.7712 50.5874 19.7712C46.5519 19.7712 44.2868 21.3394 44.0785 23.7963C44.2868 24.6588 44.9377 25.1292 45.875 25.1292C46.8643 25.1292 47.7496 24.4235 47.8277 22.6462L48.0099 20.7905C48.4004 20.7121 48.7389 20.686 49.1034 20.686C51.0821 20.686 51.707 21.4962 51.707 24.2144V25.8088L51.7068 25.8089C50.7956 26.0441 49.8844 26.2793 49.1555 26.4884C44.9637 27.7168 43.6099 28.9975 43.6099 31.376C43.6099 33.5715 45.172 34.9306 47.4111 34.9306C49.4939 34.9306 50.4833 34.1204 51.8111 32.6567C52.2017 34.0681 53.165 34.9306 54.8833 34.9306ZM47.4892 30.8532C47.4892 32.4215 48.2182 33.1533 49.4419 33.1533C50.1448 33.1533 50.7437 32.8135 51.707 31.951V26.5145C51.1082 26.6713 50.5874 26.8281 50.275 26.9588C48.4525 27.7168 47.4892 28.9452 47.4892 30.8532Z" fill="#FEFEFE"/>
<path d="M22.7812 36.3013V37.7533H57.1817V36.3013H22.7812Z" fill="#FEFEFE"/>
<g opacity="0.15">
<path d="M-24.2277 25.7739V27.226H10.1727V25.7739H-24.2277Z" fill="#FEFEFE"/>
</g>
<g opacity="0.15">
<path d="M69.7902 25.7739V27.226H104.191V25.7739H69.7902Z" fill="#FEFEFE"/>
</g>
</g>
</svg>
